<svg height="92" viewBox="0 0 168 92" width="168" xmlns="http://www.w3.org/2000/svg"><g fill="#fff" fill-rule="evenodd"><path d="m73.9406992 77.3832195c.1080813 6.2930244-3.8045366 12.5856748-12.2431057 12.5856748-2.254 0-4.9586504-.2165366-4.9586504-1.3702764-.162309-7.2665041-.2703903-9.9532033-.2165366-11.8104065 0-1.8572033.1080813-3.8224878.2165366-11.5938699 0 0 2.5786179-.3246179 5.6258374-.3246179 7.4467642-.000374 11.4678374 6.2926504 11.5759187 12.5134959zm4.1291545.0538537c.6129593-6.9418862-3.9668456-13.8837724-12.513496-13.8837724-3.6422276 0-7.3386829.3784716-10.9629593.3784716h-6.6172683l-.1260325 1.2079674c.9375772-.1080813 4.092878-.504878 4.4717235-.1080813.5048781.4869269.667187 10.9988618.667187 12.6937561 0 .9196261 0 3.5520976-.1080813 6.1666179-.1080813 2.5243903-.3425691 5.1026342-.9375772 5.7518699-.9918049 1.0456586-2.8127317 1.0998862-3.426065 1.0998862l-.1080813.8115447c1.6589918-.1080813 4.3094146-.2703902 6.0585365-.2703902 1.7670732 0 3.5341464.1080813 5.2469919.1080813 12.0804228 0 17.8143415-6.9957398 18.355122-13.9559512z"/><path d="m94.3519837 91.9341789c-1.2621951 0-1.5325853-2.668748-1.424504-6.004309.1080813-3.1193984.5407805-6.509187.4869268-8.4927967-.9918049 2.4163089-2.4163089 5.8060975-4.1833821 8.8170406-1.8751545 3.1193984-4.1471057 5.6796911-6.4549594 5.6796911-1.3164227 0-1.2621951-2.8306829-1.1541138-4.5259512.2165366-4.3815935.7752683-8.763187 1.0456586-13.1986342.1080813-1.3523252-.6129594-1.586813-1.8213009-1.586813h-2.0374634l.162309-.919626c1.7670731-.0542277 5.7881463-1.2079675 6.9418862-1.5325854-.2703903 4.5439025-.3784716 9.3039675-.829496 13.8299187-.1623089 2.0374634-.1080813 2.9570895.0542277 3.3538862.1260325.3246179.3425691.3784715.6129593.3784715 3.0292683 0 8.1681789-11.7561788 8.1681789-16.9672682l3.1915772-.5950082c-.1080813 1.0998862-.5407805 4.8685203-.7752683 8.6910082-.2703902 4.3273658-.3784715 9.0335772.7752683 9.0335772.6129594 0 1.9293821-1.3702764 2.4342602-1.9114309l.486927.5950081c-.649236.8298699-4.6878864 5.3558212-5.6796913 5.3558212z"/><path d="m113.464797 74.497935c-.432699-.7214147-1.875155-2.7405529-4.255187-2.7405529-5.607512 0-7.609073 17.2376586-.865399 17.2376586 2.307854 0 4.561854-2.0916911 5.229041-2.7947805l.504878.8653983c-.721415.7214147-4.86852 4.6519838-8.00587 4.6519838-9.0335771 0-4.021073-21.6013008 4.579805-21.6013008 2.975041 0 4.309415 1.0998861 4.309415 1.424504 0 .3788456-1.172065 2.4522114-1.496683 2.9570895z"/><path d="m128.124211 73.3980488-.27039 3.0651707c-.288341 3.0113171-4.471723 11.6480976-7.176374 11.6480976-2.70465 0-3.137349-4.4354472-2.271951-8.4744716.88335-4.1112032 3.263756-8.3663902 6.743675-8.3663902 1.640666 0 3.083122.8115447 2.97504 2.1275935zm5.787773 13.1268292-.450651-.5411544c-.432699.4869268-1.694894 1.9114309-2.470162 1.9114309-1.262195 0-.991805-5.1931382-.559106-9.682813.396797-3.8224878.937577-7.6090732 1.099886-8.9793496-.649236.667187-2.037463 1.8029756-2.578618 1.8029756-.234487 0-.396796-.0542277-.612959-.162309-.162309-.0542276-.378472-.1623089-.667187-.2703902-.486927-.2165366-1.154114-.4326992-2.037463-.4326992-4.850196 0-8.276261 5.3550732-9.700765 10.8365529-1.442455 5.6258373-.721414 10.8186016 2.362082 10.8186016 3.750309 0 8.654731-10.6020651 9.268065-11.8642602-.216163 1.4787317-1.712846 11.8642602.775268 11.8642602 1.262195.000374 4.904423-4.5255773 5.57161-5.3008456z"/><path d="m136.47265 91.7718699c-.649235 0-1.478731-.3788455-1.424504-4.4174959.054228-2.1455447 1.694895-22.9356748 1.767074-26.4877724.054227-1.586813-.108082-1.7491219-1.712846-1.6948943l-2.145545.0542277.162309-.8653984c3.642228-.5591057 6.563415-1.5325854 7.500992-1.9293821-.18026 1.586813-.991805 8.6547317-1.550537 15.6508455-.667186 7.7713821-1.045658 15.8131545.162309 15.8131545.667187 0 2.326179-1.8029756 2.86696-2.416309l.559105.5591057c-.776016.8653984-5.08543 5.7339187-6.185317 5.7339187z"/><path d="m154.413398 74.1015122c0 2.4701626-3.876715 5.8060976-7.681252 7.3386829 0-5.3550731 2.055415-10.1155122 5.679691-10.1155122 1.550911 0 1.98361.8653984 2.001561 2.7768293zm2.632472-.919626c0-1.3164228-.162309-3.0651708-3.696455-3.0651708-9.863074 0-14.100309 21.6551545-4.345317 21.6551545 3.083122 0 7.104195-3.7686341 7.771382-4.4174959l-.4327-.9918049c-.72104.7573171-2.758878 2.7947805-5.030829 2.7947805-4.453772 0-4.634032-6.1845691-4.634032-6.7257236 3.930943-1.2079675 10.367951-5.7518699 10.367951-9.2497398z"/><path d="m112.88774 23.2176585-.486927-.6129593c-.504878.504878-1.767073 1.8029756-2.43426 1.8029756-.649236 0-.829496-2.7768293-.595008-6.1123902.216536-3.1193984.595008-6.4011057.595008-6.9598374.108081-1.6410407.162309-4.54390248-1.154114-4.54390248-1.370276 0-2.145545.61295935-3.245431 1.6948943-3.588 3.57004878-5.409301 8.43856908-7.4467641 12.91029268l.9375772-14.49710568c-1.1541138.3425691-5.1931382 1.42450406-6.9598374 1.4787317l-.1623089.93757724h2.0374634c1.5505366 0 1.6589919.70308944 1.5505366 2.68669914-.4326992 9.7908944-.9375772 15.0378862-1.0456585 16.3000813l3.1915772-.6671869c.0542276-7.2122765 5.6258375-16.5704716 7.8977885-16.5704716.595008 0 .937577 1.0998862.88335 2.9028618 0 1.6406667-.288342 3.8224878-.504878 6.0222602-.4327 4.5259512-.721415 8.4744715.667187 8.4744715 1.262195 0 5.517382-4.4896748 6.274699-5.2469919z"/><path d="m130.630276 15.2839675c0-4.922374-2.145544-8.43856913-6.725723-8.43856913-6.509187 0-9.772943 6.50918703-9.772943 12.53144713 0 4.8685204 2.109642 9.0878049 6.130715 9.0878049 6.67187 0 10.367951-5.8057236 10.367951-13.1806829zm-3.371463 1.4787317c-.054228 5.2469919-1.875154 10.602439-5.337122 10.602439-2.921187 0-4.309415-4.2013333-4.309415-8.8533171 0-5.2649431 1.767074-10.62039021 5.30122-10.62039021 2.920813 0 4.345317 4.21928451 4.345317 8.87126831z"/><path d="m149.238585 8.93708943c0-.55910569 0-2.14554471-.45065-2.14554471-.216537 0-1.586813.66718699-1.875155.77526829-1.045658.37847154-2.488113.75731707-4.291463.75731707l.054228.72141464h1.370276c1.280146 0 2.542342.05422764 2.542342 1.74912198 0 5.7881463-5.679691 14.6594146-5.679691 14.6594146-1.388228-10.0074309-2.650423-18.6621626-5.138911-18.6621626-1.262195 0-3.912618 4.1112033-4.399545 4.8685203l.486927.5048781c.88335-1.2079675 1.099886-1.3702764 1.658992-1.3702764 1.316423 0 2.307854 3.3897886 3.13735 7.1584227.829495 3.7865854 1.550536 8.2040813 2.109642 11.1611707l.865398-.4326991c.558732-.8122927 9.61026-14.3897724 9.61026-19.74484557z"/><path d="m167.918699 23.2176585-.432699-.5591057c-.45065.5048781-1.712846 1.9114309-2.488488 1.9114309-1.280146 0-.991805-5.1931382-.559105-9.682813.396796-3.8224878.937577-7.59112192 1.099886-8.96139834-.649236.64923577-2.037464 1.80297561-2.578244 1.80297561-.216537 0-.396797-.05422764-.61296-.16230895-.162309-.05422764-.378471-.16230894-.667187-.27039024-.486926-.21653658-1.154113-.45065041-2.037463-.45065041-4.850195 0-8.27626 5.37339833-9.700764 10.83655283-1.442455 5.6437886-.721415 10.8365529 2.380032 10.8365529 3.732358 0 8.655106-10.6203903 9.250114-11.8825854-.216536 1.4787317-1.712845 11.8825854.775268 11.8825854 1.262196.0003739 4.904423-4.5435285 5.57161-5.3008456zm-5.788146-13.1444065-.27039 3.0651708c-.288342 3.011317-4.471724 11.6660487-7.176374 11.6660487-2.704651 0-3.13735-4.4358211-2.254-8.4927967.865398-4.0928781 3.245431-8.36639025 6.725723-8.36639025 1.641041 0 3.083496.82949594 2.975041 2.12796745z"/><path d="m76.1404715 16.582439c-1.586813.1080813-3.1915772.2883415-4.8501951.2883415h-6.9418862l-.1623089 1.1900162c.9375772-.1080813 4.2914634-.4869268 4.7963415-.1080813.2703902.2703903.3784715 2.254.3784715 4.3273659 0 4.9766016-.7752683 5.589561-4.3995447 5.589561-8.6008781 0-12.6399024-5.9141789-12.6399024-14.4069756 0-5.95008133 3.9126178-12.02656914 10.8728292-12.02656914 2.6504228 0 6.2208456.37847155 7.9879187 2.18182114 1.334374 1.31642276 1.2621951 3.22747967 1.2079675 3.89466667l1.0097561-.1080813c-.2883415-1.58681301-.2883415-4.54390244-.2344878-6.34687805-.6492358-.16230895-3.6422276-.99180488-8.2040813-.99180488-11.9727155 0-17.0394472 7.82560975-17.1654797 14.49710566-.1623089 10.1155122 6.6894472 14.3886504 15.0019838 14.3886504 3.8587642 0 8.5466504-1.0277073 12.1350243-1.0277073l.1080813-.7752683c-.1080813 0-.2703902 0-.3788455-.0542276-.5591057 0-.9918049-.0542277-1.2621951-.5950081-.2883415-.6129594-.2883415-1.8209269-.2883415-4.0569757 0-.919626 0-1.7491219.0542277-2.4522113.0542276-.667187.1623089-1.2079675.4506504-1.5325854.9375772-.9375772 1.9832358-1.0456585 2.4163089-1.0456585z"/><path d="m90.6914309 9.85671545c0-1.31642277-.1623089-3.06517073-3.6964553-3.06517073-9.8630732 0-14.1182602 21.67347968-4.3453171 21.67347968 3.083496 0 7.1041952-3.7865854 7.7713822-4.4358211l-.4506505-.9918049c-.7030894.7752683-2.7405528 2.7947805-5.012504 2.7947805-4.4717236 0-4.6340325-6.1845691-4.6340325-6.7257236 3.9126178-1.2079675 10.3675772-5.7518699 10.3675772-9.24973985zm-2.6504228.93757725c0 2.4522114-3.8587642 5.7881463-7.6633008 7.3207317 0-5.3550732 2.0374634-10.1155122 5.6796911-10.1155122 1.5509105 0 1.9836097.88334959 1.9836097 2.7947805z"/><path d="m11.4629756 46.5138537-.1623089-1.2442439c4.0749268-.1802602 6.1666179-3.8408131 6.1123902-7.3929106-.0542276-3.6063252-2.3800325-7.3386829-7.176374-6.8876585l-1.69489428.1623089c-.18026016 1.4245041-.12640651 11.3234797-.12640651 13.0726016 0 .8115447-.05422764 3.7144065 0 6.4549594.07217887 2.6324715.12640651 5.3554471.45065041 5.6976422.37847155.3788456 4.12915448 0 5.12095938-.1264065l-.1080813 1.2079675h-7.2665041c-1.71284552 0-4.20133333.162309-5.85995121.2703903l.12603252-.8115448c.54078048 0 2.14554471-.1080813 2.90286178-.8833495.61295935-.6492358.82949594-3.335935.95552846-5.8962277.1080813-2.6324715.1080813-5.3191707.1080813-6.2387967 0-1.6948943-.18026016-12.2072033-.61295935-12.6937561-.37847154-.3784716-3.02926829 0-3.85876423.1080813l.1080813-1.2079675h5.95120326c1.65899187 0 4.25518697-.2703903 6.90598377-.2703903 5.6258374 0 7.9879187 3.7686342 7.5548455 7.7171545-.4506504 3.9316911-3.6964553 8.096748-9.430374 8.9621464z"/><path d="m30.8824553 39.5719675-.2703903 3.0651707c-.2703902 3.0113171-4.4717235 11.6480976-7.1584227 11.6480976-2.7046504 0-3.1553008-4.4358212-2.2719512-8.4744716.8833496-4.1112032 3.2637561-8.3663902 6.7257235-8.3663902 1.6589919 0 3.083496.8111707 2.9750407 2.1275935zm5.8060975 13.1264553-.4506504-.5407805c-.4326991.4869268-1.7128455 1.9114309-2.4881138 1.9114309-1.2621951 0-.9918049-5.1931382-.5407805-9.682813.3784716-3.8224878.9375773-7.6090732 1.0998862-8.9613984-.667187.6492358-2.0374634 1.8029756-2.5965691 1.8029756-.2165366 0-.3788455-.0542276-.5950081-.1623089-.1802602-.0542277-.3967968-.1802602-.667187-.2883415-.5048781-.2165366-1.1541138-.4326992-2.0374634-.4326992-4.8501952 0-8.2762602 5.3550732-9.7187155 10.8365529-1.424504 5.6258373-.7030894 10.8365528 2.3800325 10.8365528 3.750309 0 8.6547317-10.6203902 9.2680651-11.8825854-.2165366 1.4787317-1.7128455 11.8825854.7752683 11.8825854 1.2618211 0 4.9040488-4.5439024 5.5712357-5.3191707z"/><path d="m39.3573008 57.9454146c-.667187 0-1.4966829-.3784715-1.4245041-4.4174959.0542277-2.1455447 1.6948944-22.9173496 1.749122-26.4877724.0721789-1.586813-.1080813-1.7491219-1.6948943-1.6948943l-2.1638699.0542277.1802601-.8653984c3.6242765-.5591057 6.5634147-1.5325854 7.4830407-1.9114309-.162309 1.586813-.9918049 8.6367805-1.5325854 15.6328943-.667187 7.7713821-1.0456585 15.8131545.162309 15.8131545.667187 0 2.3078536-1.8029756 2.8669593-2.3979838l.5591057.5407805c-.7756423.8657724-5.0850569 5.7339187-6.1849431 5.7339187z"/><path d="m59.5520488 39.5719675-.2883415 3.0651707c-.2703902 3.0113171-4.4717236 11.6480976-7.1584227 11.6480976-2.7046505 0-3.1553009-4.4358212-2.2719513-8.4744716.8837236-4.1112032 3.2637561-8.3663902 6.7257236-8.3663902 1.6586179 0 3.1010732.8111707 2.9929919 2.1275935zm5.7877723 13.1264553-.4506504-.5407805c-.4326992.4869268-1.7128455 1.9114309-2.4881138 1.9114309-1.2621951 0-.9918049-5.1931382-.5407805-9.682813.3784716-3.8224878.9375773-7.6090732 1.0998862-8.9613984-.667187.6492358-2.0374634 1.8029756-2.5965691 1.8029756-.2165366 0-.3784715-.0542276-.5950081-.1623089-.162309-.0542277-.3967968-.1802602-.667187-.2883415-.5048781-.2165366-1.1541138-.4326992-2.0374634-.4326992-4.8501952 0-8.2762602 5.3550732-9.7007643 10.8365529-1.4424553 5.6258373-.7214146 10.8365528 2.3620813 10.8365528 3.750309 0 8.6547317-10.6203902 9.2680651-11.8825854-.2165366 1.4787317-1.7128456 11.8825854.7752683 11.8825854 1.2618211 0 4.9040487-4.5439024 5.5712357-5.3191707z"/><path d="m67.2333008 53.7983089c.6129594.162309 5.4635285 1.5325854 7.7171545 1.5325854 1.2801463 0 2.1997723-1.2621951 2.5965691-1.8029756l.5591057.5407805-2.5423415 3.4440162c-.667187.8837236-2.3261788.7214147-4.2013333.2703903-.8837236-.162309-1.8751545-.4326992-2.7046504-.6492358-.8653984-.2703902-1.6948943-.4326992-2.3078537-.4326992-1.0998862 0-1.7670732.8653984-2.0374634 1.3702765l-.5591057-.5048781 11.1432195-17.2376585c-.5950081-.1080813-5.174813-1.2442439-7.2844553-1.2442439-.8833496 0-1.5325853 1.5325853-1.8029756 2.1275935l-.667187-.3246179 2.0916911-4.0569756c.3967967-.7573171 1.5505366-.6492358 3.2454309-.2703903 1.7670732.4506504 3.6422276.9918049 5.4635284.9918049.8837236 0 1.496683-.6129593 1.7670732-.9375772l.5591057.3967967z"/><path d="m99.9594959 65.9333333c-4.9044227 2.7405529-17.364065-9.6106341-20.2310244-9.6106341-.6129593 0-1.0998861.6492358-1.4424552 1.0819349-.162309.162309-.2703903.3246179-.4326992.5407805l-.5048781-.4326992 10.8728293-16.6785528s-4.7963415-1.2621951-7.0682927-1.2621951c-.8833496 0-1.5325854 1.3702764-1.7670732 2.0195122l-.6492357-.6492358 2.091691-4.1112032c.3246179-.7030895 1.496683-.5950082 3.1915773-.2165366 1.8213008.4506504 3.5883739.9918048 5.4635284.9918048.9375773 0 1.5505366-.5950081 1.7670732-.9375772l.4326992.3425691-10.6383415 16.3000813c.4506504 0 1.334374.5950081 2.8669594 1.6406667 4.3636422 2.8310569 13.2349105 8.7452358 17.9770243 8.7452358.937577 0 2.271951-.7573171 2.70465-1.0456586l.270391.5591057z"/><path d="m100.121805 36.7409106c-5.8240489 0-10.5482115 4.760065-10.5482115 10.6383414 0 5.8962277 4.7241626 10.6562927 10.5482115 10.6562927 5.824049 0 10.548211-4.760065 10.548211-10.6562927 0-5.8779024-4.724162-10.6383414-10.548211-10.6383414zm0 19.3835772c-4.6519839 0-8.420618-3.9126179-8.420618-8.7452358 0-4.8142927 3.7686341-8.7269105 8.420618-8.7269105 4.651984 0 8.402293 3.9126178 8.402293 8.7269105.000374 4.8326179-3.768261 8.7452358-8.402293 8.7452358z"/></g></svg>